<?xml version="1.0" encoding="utf-8"?>
<svg fill="#3c9" version="1.1" id="Capa_1" xmlns="http://www.w3.org/2000/svg" width="64px" height="64px" viewBox="-4.58 -4.58 54.94 54.94" stroke="#3c9" stroke-width="0.00045779">
  <g id="SVGRepo_bgCarrier" stroke-width="0" transform="translate(10.98696,10.98696), scale(0.52)">
    <rect x="-4.58" y="-4.58" width="54.94" height="54.94" rx="27.47" fill="#fbc503" strokewidth="0"/>
  </g>
  <g id="SVGRepo_tracerCarrier" stroke-linecap="round" stroke-linejoin="round" stroke="#fbc503" stroke-width="4.394784">
    <g>
      <g>
        <path d="M37.426,2.633H8.362C3.746,2.633,0,6.369,0,10.985v17.003c0,4.615,3.747,8.344,8.362,8.344h18.48l3.902,5.604 c0.527,0.756,1.39,1.209,2.311,1.211c0.92,0.002,1.785-0.443,2.314-1.197l4.129-5.865c3.611-0.924,6.281-4.198,6.281-8.098V10.985 C45.779,6.369,42.042,2.633,37.426,2.633z M15.431,22.203c-1.505,0-2.726-1.215-2.726-2.717c0-1.499,1.221-2.716,2.726-2.716 c1.506,0,2.726,1.217,2.726,2.716C18.157,20.988,16.937,22.203,15.431,22.203z M22.894,22.203c-1.505,0-2.726-1.215-2.726-2.717 c0-1.499,1.221-2.716,2.726-2.716c1.506,0,2.725,1.217,2.725,2.716C25.619,20.988,24.4,22.203,22.894,22.203z M30.357,22.203 c-1.506,0-2.727-1.215-2.727-2.717c0-1.499,1.221-2.716,2.727-2.716s2.726,1.217,2.726,2.716 C33.083,20.988,31.863,22.203,30.357,22.203z"/>
      </g>
    </g>
  </g>
  <g id="SVGRepo_iconCarrier">
    <g>
      <g>
        <path d="M37.426,2.633H8.362C3.746,2.633,0,6.369,0,10.985v17.003c0,4.615,3.747,8.344,8.362,8.344h18.48l3.902,5.604 c0.527,0.756,1.39,1.209,2.311,1.211c0.92,0.002,1.785-0.443,2.314-1.197l4.129-5.865c3.611-0.924,6.281-4.198,6.281-8.098V10.985 C45.779,6.369,42.042,2.633,37.426,2.633z M15.431,22.203c-1.505,0-2.726-1.215-2.726-2.717c0-1.499,1.221-2.716,2.726-2.716 c1.506,0,2.726,1.217,2.726,2.716C18.157,20.988,16.937,22.203,15.431,22.203z M22.894,22.203c-1.505,0-2.726-1.215-2.726-2.717 c0-1.499,1.221-2.716,2.726-2.716c1.506,0,2.725,1.217,2.725,2.716C25.619,20.988,24.4,22.203,22.894,22.203z M30.357,22.203 c-1.506,0-2.727-1.215-2.727-2.717c0-1.499,1.221-2.716,2.727-2.716s2.726,1.217,2.726,2.716 C33.083,20.988,31.863,22.203,30.357,22.203z"/>
      </g>
    </g>
  </g>
  <ellipse style="stroke-width: 1px; stroke: none; fill: rgb(255, 21, 21);" cx="5.784" cy="4.571" rx="7.912" ry="7.71"/>
</svg>